Coordinates
version=1
nRows=6
nColumns=63
inDegrees=yes

Units are S.I. units (second, meters, Newtons, ...)
If the header above contains a line with 'inDegrees', this indicates whether rotational values are in degrees (yes) or radians (no).

endheader
time	pelvis_tilt	pelvis_list	pelvis_rotation	pelvis_tx	pelvis_ty	pelvis_tz	hip_flexion_r	hip_adduction_r	hip_rotation_r	knee_angle_r	knee_angle_r_beta	ankle_angle_r	subtalar_angle_r	mtp_angle_r	hip_flexion_l	hip_adduction_l	hip_rotation_l	knee_angle_l	knee_angle_l_beta	ankle_angle_l	subtalar_angle_l	mtp_angle_l	L5_S1_Flex_Ext	L5_S1_Lat_Bending	L5_S1_axial_rotation	L4_L5_Flex_Ext	L4_L5_Lat_Bending	L4_L5_axial_rotation	L3_L4_Flex_Ext	L3_L4_Lat_Bending	L3_L4_axial_rotation	L2_L3_Flex_Ext	L2_L3_Lat_Bending	L2_L3_axial_rotation	L1_L2_Flex_Ext	L1_L2_Lat_Bending	L1_L2_axial_rotation	L1_T12_Flex_Ext	L1_T12_Lat_Bending	L1_T12_axial_rotation	Abs_r3	Abs_r2	Abs_r1	Abs_t1	Abs_t2	neck_flexion	neck_bending	neck_rotation	arm_flex_r	arm_add_r	arm_rot_r	elbow_flex_r	pro_sup_r	wrist_flex_r	wrist_dev_r	arm_flex_l	arm_add_l	arm_rot_l	elbow_flex_l	pro_sup_l	wrist_flex_l	wrist_dev_l
      0.00000000	      2.27757273	     -3.85225188	     99.78945724	      0.21743484	      0.83504874	      0.55366841	     -7.31705076	      3.00044052	      5.06749614	      1.43069761	      0.02497038	     19.31698876	    -10.50090494	      0.00000000	     -7.04495628	     -0.50557590	      3.01706594	      0.61919479	      0.01080699	     24.56693618	      0.07821633	      0.00000000	     -0.02765537	      0.22644965	     -0.00646441	     -0.05135878	      0.30117804	     -0.00686843	     -0.04543500	      0.55058969	     -0.00686843	     -0.03160732	      0.55058969	     -0.00565636	     -0.02568077	      0.46177613	     -0.00525233	     -0.01580228	      0.35077051	     -0.00484831	     -0.19753952	      2.56164377	     -0.03595309	      0.00000000	      0.00000000	     21.30946648	      0.02781192	     11.03109355	      9.83836220	     -9.35228531	    158.92009657	      4.52745965	      6.56284871	     -5.27315164	     -6.01503270	     10.00700288	     -6.73012158	    174.28017949	      2.20232379	     26.47216137	     -8.05213286	     -3.80584453
      0.02127660	      2.27036704	     -4.20072784	     99.29754231	      0.21966661	      0.83457371	      0.55830361	     -6.85936935	      2.89052107	      8.43689135	      0.74318956	      0.01297110	     17.48163572	    -15.30378560	      0.00000000	     -6.47322659	     -0.50000894	      3.74337139	      0.30718084	      0.00536132	     24.24442519	     -1.21446543	      0.00000000	     -0.07340817	      0.21109846	      0.01577457	     -0.13632631	      0.28076096	      0.01676048	     -0.12060228	      0.51326480	      0.01676048	     -0.08389820	      0.51326480	      0.01380275	     -0.06816683	      0.43047199	      0.01281684	     -0.04194543	      0.32699152	      0.01183092	     -0.52434721	      2.38798804	      0.08773341	      0.00000000	      0.00000000	     22.36697558	      0.43303699	     11.53882583	     10.61416143	     -9.39886361	    157.31779789	      4.40287921	      3.02738487	     -3.55997741	     -6.75140205	     10.08242126	     -7.10459083	    172.94669431	      1.53678558	     22.71694550	     -6.49186728	     -4.31512170
      0.04255319	      2.36603822	     -4.79232875	     98.79612991	      0.22152632	      0.83380573	      0.56170212	     -5.85524510	      2.83020182	      8.55607872	      0.80677490	      0.01408088	     17.39614586	    -15.03277417	      0.00000000	     -5.56261111	     -0.55037151	      3.07114634	      0.32867627	      0.00573648	     24.32513411	     -0.76318943	      0.00000000	     -0.04220243	      0.20513230	      0.09216506	     -0.07837413	      0.27282596	      0.09792537	     -0.06933437	      0.49875867	      0.09792537	     -0.04823316	      0.49875867	      0.08064442	     -0.03918918	      0.41830578	      0.07488411	     -0.02411447	      0.31774993	      0.06912379	     -0.30144774	      2.32049760	      0.51259439	      0.00000000	      0.00000000	     22.90174163	      0.59002820	     11.59035140	     11.11231928	     -9.36668285	    156.03854889	      4.64061434	      3.08051775	     -3.47514220	     -6.61681891	     10.31002886	     -7.22848092	    171.14904311	      1.70043912	     20.96212622	     -5.87030450	     -4.09028651
      0.06382979	      2.43070502	     -5.16460815	     98.49693961	      0.22286330	      0.83321747	      0.56380731	     -5.23438312	      2.82679361	      9.07738660	      0.80050637	      0.01397147	     17.12420861	    -15.51821213	      0.00000000	     -4.98832646	     -0.60096034	      4.24253616	      0.33838015	      0.00590585	     23.99363776	     -2.72353803	      0.00000000	     -0.02715481	      0.20083509	      0.18339521	     -0.05042921	      0.26711067	      0.19485741	     -0.04461264	      0.48831044	      0.19485741	     -0.03103524	      0.48831044	      0.16047081	     -0.02521596	      0.40954292	      0.14900861	     -0.01551626	      0.31109356	      0.13754641	     -0.19396412	      2.27188672	      1.01998916	      0.00000000	      0.00000000	     23.32362880	      0.62306598	     11.48239240	     11.19230655	     -9.23117480	    157.84290132	      4.30448387	      3.06027134	     -3.74716059	     -6.63403415	     10.64092268	     -7.26492744	    173.46964272	      1.76377118	     17.51015805	     -5.59156420	     -4.08764135
      0.08510638	      2.47293601	     -5.39582970	     98.27225745	      0.22376472	      0.83277173	      0.56479001	     -4.86516132	      2.82591754	      9.32371443	      0.78456903	      0.01369331	     17.04240940	    -15.56813224	      0.00000000	     -4.64837751	     -0.64747961	      4.01590310	      0.34165255	      0.00596296	     24.02652129	     -2.65533276	      0.00000000	     -0.01692345	      0.19650082	      0.28704384	     -0.03142854	      0.26134609	      0.30498408	     -0.02780354	      0.47777210	      0.30498408	     -0.01934181	      0.47777210	      0.25116336	     -0.01571512	      0.40070448	      0.23322312	     -0.00967006	      0.30437977	      0.21528288	     -0.12088252	      2.22285659	      1.59645172	      0.00000000	      0.00000000	     23.71128647	      0.57312471	     11.14081045	     11.03040350	     -9.11857189	    159.41760760	      3.92872660	      3.54300993	     -4.00539920	     -6.52844590	     10.91035292	     -7.28013382	    172.95749716	      1.79768676	     17.83880105	     -4.98861289	     -4.64296988
      0.10638298	      2.51371502	     -5.63103417	     98.24543078	      0.22404256	      0.83238013	      0.56479351	     -4.31950726	      2.81939636	      7.18444618	      1.32863568	      0.02318907	     18.28163536	    -12.17654136	      0.00000000	     -4.20873157	     -0.70768684	      2.86565312	      0.68180535	      0.01189975	     24.58226268	     -0.94135903	      0.00000000	      0.02831385	      0.19614804	      0.36752360	      0.05258165	      0.26087690	      0.39049382	      0.04651682	      0.47691436	      0.39049382	      0.03235990	      0.47691436	      0.32158315	      0.02629224	      0.39998509	      0.29861292	      0.01617853	      0.30383332	      0.27564270	      0.20224299	      2.21886591	      2.04405600	      0.00000000	      0.00000000	     23.29184300	      0.46956747	     10.93174377	     10.94731903	     -9.09866455	    158.36505066	      4.53947449	      6.96205407	     -5.41411851	     -6.18865917	     11.31075991	     -7.13929403	    172.19049348	      2.68215559	     19.74946619	     -5.91153914	     -4.54634180
